# xmcd
#
# Track frame offsets: 
#        180
#        23275
#        47481
#        87123
#        121800
#        142819
#        179852
#        204446
#        245153
#        275882
#
# Disc length: 3994 seconds
#
# Revision: 1
# Processed by: cddbd v1.5.1PL2 Copyright (c) Steve Scherf et al.
# Submitted via: ExactAudioCopy v0.90b4
#
DISCID=870f980a
DTITLE=Grant Fullerton's JamNation - Pickin', Stickin, and Blowin'
DYEAR=1998
DGENRE=Blues
TTITLE0=Mojo Workin'
TTITLE1=The Letter
TTITLE2=The Joker
TTITLE3=Phone Booth
TTITLE4=Love The One You're With
TTITLE5=Walkin' The Dog
TTITLE6=I'm Good
TTITLE7=Runaway
TTITLE8=Will You Still Love Me Tomorrow
TTITLE9=Why Don't We Do It In The Road
EXTD=
EXTT0=
EXTT1=
EXTT2=
EXTT3=
EXTT4=
EXTT5=
EXTT6=
EXTT7=
EXTT8=
EXTT9=
PLAYORDER=
